<?xml version="1.0" standalone="no"?>
<!DOCTYPE svg PUBLIC "-//W3C//DTD SVG 20010904//EN"
 "http://www.w3.org/TR/2001/REC-SVG-20010904/DTD/svg10.dtd">
<svg version="1.0" xmlns="http://www.w3.org/2000/svg"
 width="130.000000pt" height="130.000000pt" viewBox="0 0 130.000000 130.000000"
 preserveAspectRatio="xMidYMid meet">
<metadata>
Created by potrace 1.14, written by Peter Selinger 2001-2017
</metadata>
<g transform="translate(0.000000,130.000000) scale(0.100000,-0.100000)"
fill="#000000" stroke="none">
<path d="M310 862 c-7 -3 -50 -85 -50 -97 0 -1 114 -2 253 -1 l252 1 5 32 5
32 112 -72 113 -73 -108 -59 c-59 -32 -118 -66 -131 -74 l-24 -15 6 36 5 36
-347 1 c-335 2 -348 1 -372 -18 l-24 -20 108 -1 107 0 0 -40 c0 -34 4 -42 31
-55 47 -25 81 -16 91 22 24 94 172 87 193 -8 l7 -29 224 0 c123 0 224 3 225 8
3 34 12 51 41 75 58 48 133 29 162 -43 14 -36 20 -41 43 -38 23 3 28 8 31 40
2 22 -5 55 -16 82 -18 39 -29 48 -94 80 -46 22 -98 59 -143 100 -108 102 -96
99 -417 100 -153 1 -282 0 -288 -2z"/>
<path d="M788 768 l-3 -23 -314 -1 -314 -1 -18 -24 c-10 -13 -19 -26 -19 -29
0 -8 804 -5 810 2 4 6 -124 98 -136 98 -1 0 -4 -10 -6 -22z"/>
<path d="M1074 540 c-28 -11 -54 -48 -54 -78 0 -31 43 -72 75 -72 60 0 98 55
73 106 -16 33 -64 55 -94 44z m51 -46 c9 -9 14 -23 11 -31 -3 -8 -6 -18 -6
-23 0 -13 -36 -18 -54 -8 -21 12 -21 54 2 67 23 14 28 14 47 -5z"/>
<path d="M382 517 c-47 -50 -14 -127 55 -127 55 0 92 61 67 111 -23 46 -87 54
-122 16z m89 -38 c14 -27 -23 -64 -50 -50 -28 16 -33 49 -9 65 24 17 44 11 59
-15z"/>
</g>
</svg>
